<svg xmlns="http://www.w3.org/2000/svg" fill="#fff" width="415" height="74" viewbox="0 0 415 74">
  <path d="M28.914 2.42L26.91 4.102 24.904 2.42 26.909 0l2.005 2.42zM22.68 45.11c-.207 3.607-3.18 6.466-6.816 6.466-3.77 0-6.827-3.075-6.827-6.869 0-.135.004-.27.011-.403h-.011s-.034-.201.103-.794a6.849 6.849 0 01.553-1.744c.358-.95.908-2.227 1.753-3.927 2.611-5.253 15.463-24.04 15.463-24.04l-4.217 31.313-.012-.001z"/>
  <path fill-rule="evenodd" d="M26.91 4.102c-2.006-1.682-2.007-1.68-2.007-1.68l-.02.023-.055.067-.21.256c-.182.224-.448.551-.785.971a225.34 225.34 0 00-2.785 3.549c-2.3 2.989-5.372 7.123-8.45 11.692-3.07 4.56-6.18 9.602-8.532 14.401C1.759 38.09 0 42.914 0 46.93 0 61.88 12.048 74 26.91 74c14.86 0 26.908-12.12 26.908-27.07 0-4.016-1.758-8.841-4.066-13.549-2.352-4.799-5.462-9.841-8.532-14.4-3.078-4.57-6.15-8.704-8.45-11.693a225.34 225.34 0 00-3.57-4.52 82.681 82.681 0 00-.21-.256l-.055-.067-.02-.024-2.006 1.68zm0 4.177c-.505.639-1.088 1.385-1.733 2.224-2.256 2.931-5.258 6.973-8.256 11.423-3.004 4.46-5.968 9.28-8.172 13.778-2.25 4.588-3.528 8.491-3.528 11.226 0 12.05 9.71 21.818 21.688 21.818 11.978 0 21.688-9.769 21.688-21.818 0-2.735-1.279-6.638-3.528-11.226-2.204-4.497-5.168-9.318-8.172-13.778-2.997-4.45-6-8.492-8.256-11.423a233.538 233.538 0 00-1.732-2.224z" clip-rule="evenodd"/>
  <path d="M72.687 14.404h6.386v17.849H90.57v5.68H72.687V14.404zm32.945 15.933h-2.353v7.596h-6.387V14.404h11.664c1.703 0 3.204.348 4.504 1.042 1.3.672 2.297 1.614 2.992 2.824.717 1.21 1.075 2.61 1.075 4.201 0 1.748-.425 3.238-1.277 4.47-.852 1.233-2.084 2.152-3.697 2.757l6.42 8.235h-7.462l-5.479-7.596zm5.21-7.765c0-.919-.28-1.624-.841-2.117-.56-.493-1.367-.74-2.42-.74h-4.37v5.714h4.37c1.053 0 1.86-.246 2.42-.74.561-.492.841-1.198.841-2.117zm31.76-8.168v5.445h-6.925v18.084h-6.386V19.85h-6.925v-5.445h20.236zm16.435 0h6.387v17.849h11.495v5.68h-17.882V14.404zm34.531 24.034c-3.518 0-6.23-.942-8.134-2.824-1.905-1.882-2.857-4.56-2.857-8.033V14.404h6.386v13.177c0 1.68.392 2.991 1.176 3.932.807.919 1.95 1.378 3.429 1.378 1.457 0 2.588-.459 3.395-1.378.807-.941 1.21-2.252 1.21-3.933V14.405h6.387v13.177c0 3.473-.953 6.15-2.858 8.033-1.904 1.882-4.616 2.824-8.134 2.824zm36.049-12.84c1.143.515 2.039 1.277 2.689 2.285.65.986.975 2.118.975 3.395 0 2.062-.818 3.686-2.454 4.874-1.614 1.188-3.832 1.781-6.656 1.781h-11.865V14.404h11.865c2.577 0 4.617.572 6.118 1.714 1.524 1.12 2.286 2.645 2.286 4.572 0 1.12-.258 2.106-.773 2.958-.516.829-1.244 1.479-2.185 1.95zm-11.093-6.085v3.832h5.681c.695 0 1.233-.168 1.613-.504.381-.336.572-.807.572-1.412 0-.605-.191-1.075-.572-1.412-.38-.336-.918-.504-1.613-.504h-5.681zm5.95 13.177c.829 0 1.468-.19 1.916-.572.448-.403.672-.952.672-1.647 0-.717-.224-1.266-.672-1.647-.448-.38-1.087-.571-1.916-.571h-5.95v4.437h5.95zm24.519-2.353h-2.353v7.596h-6.387V14.404h11.664c1.703 0 3.205.348 4.504 1.042 1.3.672 2.297 1.614 2.992 2.824.717 1.21 1.076 2.61 1.076 4.201 0 1.748-.426 3.238-1.278 4.47-.851 1.233-2.084 2.152-3.697 2.757l6.42 8.235h-7.462l-5.479-7.596zm5.21-7.765c0-.919-.28-1.624-.84-2.117-.561-.493-1.367-.74-2.421-.74h-4.369v5.714h4.369c1.054 0 1.86-.246 2.421-.74.56-.492.84-1.198.84-2.117zm13.768-8.168h6.387v23.53h-6.387v-23.53zm26.051 24.1c-2.599 0-4.874-.515-6.823-1.545-1.927-1.031-3.417-2.477-4.471-4.337-1.03-1.86-1.546-4.01-1.546-6.453 0-2.465.538-4.628 1.614-6.488a10.904 10.904 0 014.504-4.336c1.927-1.008 4.123-1.512 6.588-1.512 3.518 0 6.532 1.232 9.042 3.697l-3.832 3.933c-.74-.695-1.524-1.199-2.353-1.513-.829-.336-1.737-.504-2.723-.504-1.927 0-3.484.616-4.672 1.849-1.187 1.232-1.781 2.857-1.781 4.874 0 2.017.594 3.641 1.781 4.874 1.188 1.232 2.745 1.848 4.672 1.848 1.098 0 2.129-.19 3.093-.571a8.175 8.175 0 002.622-1.714l3.596 4.168c-2.577 2.487-5.68 3.73-9.311 3.73zm33.515-.57l-1.546-3.9h-10.924l-1.58 3.9h-6.823l10.554-23.53h6.723l10.487 23.53h-6.891zm-3.731-9.278l-3.26-8.269-3.328 8.27h6.588zm30.955-14.252h6.352v23.53h-5.68l-9.546-13.244.134 5.68v7.563h-6.353V14.404h5.681l9.546 13.31-.134-5.747v-7.563zm32.849 0v5.445h-6.925v18.084h-6.386V19.85h-6.924v-5.445h20.235zm15.053 24.134c-1.972 0-3.866-.291-5.681-.874-1.815-.605-3.35-1.434-4.605-2.487l3.294-4.571c1.054.784 2.14 1.367 3.261 1.747 1.143.381 2.375.572 3.697.572 1.21 0 2.163-.19 2.857-.572.695-.38 1.042-.896 1.042-1.546s-.325-1.154-.974-1.512c-.65-.359-1.703-.605-3.16-.74-3.227-.291-5.591-1.008-7.092-2.151-1.502-1.165-2.252-2.835-2.252-5.008 0-1.502.414-2.824 1.243-3.967.829-1.165 1.995-2.061 3.496-2.689 1.501-.627 3.238-.94 5.21-.94 1.681 0 3.294.223 4.84.671 1.569.448 2.947 1.087 4.135 1.916l-2.925 4.47c-1.703-1.164-3.607-1.747-5.714-1.747-1.277 0-2.286.18-3.025.538-.717.358-1.076.851-1.076 1.479 0 .65.303 1.131.908 1.445.605.314 1.658.55 3.16.706 3.092.314 5.445 1.12 7.058 2.42 1.614 1.277 2.42 3.003 2.42 5.177 0 1.5-.425 2.834-1.277 4-.851 1.165-2.039 2.072-3.563 2.722-1.524.628-3.283.941-5.277.941zM84.91 50.228h-1.489l-3.502 5.536a54.925 54.925 0 00-1.3 2.119h-.042a85.012 85.012 0 00-1.28-2.077l-3.523-5.578h-1.468l5.642 8.745v5.935h1.237v-5.914l5.725-8.766zm4.55 14.89c2.999 0 5.369-2.118 5.369-5.41 0-3.251-2.35-5.349-5.306-5.349-2.978 0-5.37 2.119-5.37 5.39 0 3.25 2.35 5.369 5.307 5.369zm.02-1.111c-2.285 0-4.13-1.72-4.13-4.3 0-2.537 1.845-4.236 4.152-4.236 2.285 0 4.131 1.72 4.131 4.278 0 2.538-1.846 4.258-4.152 4.258zm12.404 1.048c1.741 0 3.23-.902 3.838-2.223h.063c-.042.692-.042 1.384-.042 2.076h1.132v-10.36h-1.195v5.684c0 2.097-1.489 3.733-3.628 3.733-2.119 0-3.335-1.3-3.335-3.566v-5.85h-1.195v5.892c0 2.873 1.656 4.614 4.362 4.614zm8.605-.147h1.196V59.54c0-2.285 1.426-4.005 3.334-4.005.42 0 .797.063 1.154.189l.335-1.07c-.419-.168-.923-.23-1.426-.23-1.741 0-2.978 1.132-3.46 2.306h-.042c.042-.713.063-1.468.063-2.18h-1.154v10.36zm14.785-1.174V50.228h-1.237v14.68h9.479v-1.174h-8.242zm14.253 1.321c1.741 0 3.23-.902 3.838-2.223h.063c-.042.692-.042 1.384-.042 2.076h1.132v-10.36h-1.195v5.684c0 2.097-1.489 3.733-3.628 3.733-2.118 0-3.335-1.3-3.335-3.566v-5.85h-1.195v5.892c0 2.873 1.657 4.614 4.362 4.614zm14.016.042c2.999 0 5.18-2.181 5.18-5.39 0-3.166-2.181-5.348-5.159-5.348-2.139 0-3.775 1.196-4.278 2.538h-.042c.063-.923.084-1.74.084-2.81v-3.86h-1.196v14.681h1.154c0-1.027 0-1.51-.042-2.39h.042c.44 1.384 2.097 2.58 4.257 2.58zm-.147-1.111c-2.37 0-4.068-1.7-4.068-4.258s1.698-4.257 4.089-4.257c2.391 0 4.111 1.699 4.111 4.257 0 2.559-1.72 4.258-4.132 4.258zm8.151.922h1.195V59.54c0-2.285 1.427-4.005 3.335-4.005.419 0 .797.063 1.153.189l.336-1.07c-.419-.168-.923-.23-1.426-.23-1.741 0-2.978 1.132-3.46 2.306h-.042c.042-.713.062-1.468.062-2.18h-1.153v10.36zm8.779-12.604c.567 0 .944-.398.944-.944 0-.524-.377-.922-.944-.922-.545 0-.943.398-.943.922 0 .546.398.944.943.944zm-.587 12.604h1.196v-10.36h-1.196v10.36zm9.386.21c1.384 0 2.684-.461 3.712-1.342l-.588-.923a4.815 4.815 0 01-3.124 1.154c-2.265 0-4.174-1.573-4.174-4.279 0-2.726 1.909-4.278 4.174-4.278 1.027 0 2.097.356 2.957 1.09l.65-.901a5.5 5.5 0 00-3.587-1.3c-3.019 0-5.389 2.076-5.389 5.39 0 3.292 2.39 5.389 5.369 5.389zm9.579-10.717c-1.217 0-2.391.273-3.691.86l.356.986c1.028-.462 2.244-.776 3.293-.776 2.244 0 3.649.902 3.649 2.873v1.007c-1.279-.65-2.517-.902-3.838-.902-2.412 0-4.215 1.195-4.215 3.334 0 2.098 1.74 3.314 3.984 3.314 1.888 0 3.503-.986 4.174-2.454h.042c-.042.734-.042 1.468-.042 2.265h1.09v-6.564c0-2.705-1.908-3.943-4.802-3.943zm-.315 9.627c-1.636 0-2.936-.84-2.936-2.266 0-1.447 1.3-2.285 3.146-2.285 1.216 0 2.726.356 3.754.943-.126 2.181-1.867 3.608-3.964 3.608zm8.569.88h1.195v-5.683c0-2.097 1.552-3.733 3.754-3.733 2.181 0 3.335 1.3 3.335 3.544v5.872h1.195v-5.956c0-2.894-1.573-4.55-4.362-4.55-1.867 0-3.377.922-3.985 2.306h-.042c.042-.776.042-1.468.042-2.16h-1.132v10.36zm18.733-1.342c-.524.252-1.195.462-1.678.462-1.531 0-1.845-.944-1.845-2.328v-6.103h3.46v-1.049h-3.46v-3.104l-1.196.126v2.978h-2.16v1.049h2.16v6.124c0 2.139.797 3.376 2.957 3.376.714 0 1.448-.21 2.161-.545l-.399-.986zm12.425 1.594c3.146 0 5.327-1.531 5.327-4.152 0-2.286-1.237-3.46-5.033-4.258-2.999-.629-4.027-1.342-4.027-2.873 0-1.72 1.657-2.747 3.838-2.747 1.426 0 2.747.377 3.859 1.111l.671-.944c-1.342-.901-2.81-1.342-4.53-1.342-2.894 0-5.075 1.531-5.075 3.943 0 2.181 1.363 3.272 4.907 3.985 3.272.67 4.132 1.51 4.132 3.145 0 1.888-1.678 2.958-4.048 2.958-1.929 0-3.502-.713-4.802-1.615l-.63.985c1.385 1.028 3.209 1.804 5.411 1.804zm7.939 4.74h1.195v-4.677c0-1.09 0-1.699-.063-2.643h.042c.483 1.322 2.098 2.517 4.237 2.517 3.02 0 5.18-2.181 5.18-5.369 0-3.188-2.16-5.369-5.159-5.369-2.181 0-3.817 1.196-4.279 2.559h-.042c.063-.86.084-1.342.084-2.37h-1.195V69.9zm5.285-5.914c-2.391 0-4.09-1.7-4.09-4.279 0-2.537 1.699-4.236 4.111-4.236 2.37 0 4.089 1.699 4.089 4.278 0 2.538-1.719 4.237-4.11 4.237zm17.42-4.635c0-3.188-1.971-5.013-4.928-5.013-2.999 0-5.138 2.265-5.138 5.39 0 3.167 2.118 5.39 5.18 5.39 1.552 0 3.208-.587 4.32-1.72l-.65-.818c-.965.944-2.412 1.448-3.649 1.448-2.244 0-3.838-1.51-4.006-3.86h8.829c.021-.293.042-.566.042-.817zm-4.949-3.922c2.328 0 3.775 1.342 3.817 3.712h-7.739c.252-2.265 1.804-3.712 3.922-3.712zm12.192 9.689c1.384 0 2.684-.461 3.712-1.342l-.588-.923a4.815 4.815 0 01-3.124 1.154c-2.265 0-4.174-1.573-4.174-4.279 0-2.726 1.909-4.278 4.174-4.278 1.027 0 2.097.356 2.957 1.09l.65-.901a5.5 5.5 0 00-3.586-1.3c-3.02 0-5.39 2.076-5.39 5.39 0 3.292 2.391 5.389 5.369 5.389zm6.89-12.814c.566 0 .943-.398.943-.944 0-.524-.377-.922-.943-.922-.546 0-.944.398-.944.922 0 .546.398.944.944.944zm-.588 12.604h1.196v-10.36h-1.196v10.36zm8.274-10.507c-1.216 0-2.391.273-3.691.86l.357.986c1.027-.462 2.244-.776 3.292-.776 2.244 0 3.649.902 3.649 2.873v1.007c-1.279-.65-2.516-.902-3.838-.902-2.411 0-4.215 1.195-4.215 3.334 0 2.098 1.741 3.314 3.985 3.314 1.887 0 3.502-.986 4.173-2.454h.042c-.042.734-.042 1.468-.042 2.265h1.091v-6.564c0-2.705-1.909-3.943-4.803-3.943zm-.314 9.627c-1.636 0-2.937-.84-2.937-2.266 0-1.447 1.301-2.285 3.146-2.285 1.217 0 2.727.356 3.754.943-.126 2.181-1.866 3.608-3.963 3.608zm11.294 1.132c.525 0 1.091-.126 1.636-.336l-.356-1.027c-.42.168-.776.252-1.133.252-1.153 0-1.678-.336-1.678-2.35V50.229h-1.195v11.514c0 2.6.944 3.418 2.726 3.418zm4.272-12.856c.566 0 .943-.398.943-.944 0-.524-.377-.922-.943-.922-.546 0-.944.398-.944.922 0 .546.398.944.944.944zm-.588 12.604h1.196v-10.36h-1.196v10.36zm8.274.252c2.391 0 4.027-1.216 4.027-2.999 0-1.72-1.091-2.517-4.09-3.04-2.013-.378-2.831-.945-2.831-1.91 0-1.069 1.049-1.761 2.768-1.761 1.175 0 2.307.356 3.293.944l.44-.944c-1.048-.692-2.307-1.049-3.712-1.049-2.39 0-3.963 1.175-3.963 2.832 0 1.53 1.195 2.432 3.858 2.894 2.286.44 3.041.901 3.041 2.013 0 1.175-1.153 1.95-2.831 1.95-1.426 0-2.726-.503-3.838-1.279l-.566.923a7.513 7.513 0 004.404 1.426zm12.651-1.594c-.524.252-1.195.462-1.678.462-1.531 0-1.845-.944-1.845-2.328v-6.103h3.46v-1.049h-3.46v-3.104l-1.195.126v2.978h-2.161v1.049h2.161v6.124c0 2.139.796 3.376 2.957 3.376.713 0 1.447-.21 2.16-.545l-.399-.986z"/>
</svg>
